<svg width="169" height="38" viewBox="0 0 169 38" fill="none" xmlns="http://www.w3.org/2000/svg">
<path d="M8.11279 30.4015C7.81756 30.4015 8.3215 30.6093 8.11279 30.4015H3.01122C1.35696 30.4015 0.0148927 29.0624 0.0112275 27.4081L0 22.3406C0 22.3406 0.0178596 22.6343 0.0178596 22.3406V1.10766C0.0178596 0.495914 0.516082 0 1.13067 0H6.53889C7.15348 0 7.6517 0.495915 7.6517 1.10766V21.6916C7.6517 22.3033 8.14991 22.7993 8.7645 22.7993H14.1764C14.791 22.7993 15.2892 23.2952 15.2892 23.9069V29.2938C15.2892 29.9056 14.791 30.4015 14.1764 30.4015H8.11279Z" fill="white"/>
<path d="M46.9523 30.4015C46.3377 30.4015 45.8395 29.9056 45.8395 29.2938V8.70618C45.8395 8.09444 46.3377 7.59852 46.9523 7.59852H75.9216C75.713 7.39103 76.2166 7.59852 75.9216 7.59852C80.3738 7.59852 84.0272 11.2077 84.0272 15.6599C84.0272 15.3659 84.2361 15.8676 84.0272 15.6599V29.2938C84.0272 29.9056 83.529 30.4015 82.9144 30.4015H77.495C76.8805 30.4015 76.3822 29.9056 76.3822 29.2938V16.3084C76.3822 15.6967 75.884 15.2007 75.2694 15.2007H69.8612C69.2466 15.2007 68.7484 15.6967 68.7484 16.3084V29.2938C68.7484 29.9056 68.2502 30.4015 67.6356 30.4015H62.2236C61.609 30.4015 61.1108 29.9056 61.1108 29.2938V16.3084C61.1108 15.6967 60.6126 15.2007 59.998 15.2007H54.5898C53.9752 15.2007 53.477 15.6967 53.477 16.3084V29.2938C53.477 29.9056 52.9788 30.4015 52.3642 30.4015H46.9523Z" fill="white"/>
<path d="M88.9532 30.4015C88.3386 30.4015 87.8404 29.9056 87.8404 29.2938V8.70618C87.8404 8.09444 88.3386 7.59852 88.9532 7.59852H102.651C102.442 7.39068 102.946 7.59852 102.651 7.59852L104.162 7.607C107.804 7.62742 110.746 10.5856 110.746 14.2276V14.6932C110.746 15.0181 110.746 15.3345 110.746 15.6594V29.2938C110.746 29.9056 110.247 30.4015 109.633 30.4015H104.225C103.61 30.4015 103.112 29.9056 103.112 29.2938V16.3084C103.112 15.6967 102.614 15.2007 101.999 15.2007H96.5908C95.9762 15.2007 95.478 15.6967 95.478 16.3084V29.2938C95.478 29.9056 94.9797 30.4015 94.3652 30.4015H88.9532Z" fill="white"/>
<path d="M115.683 15.2007C115.068 15.2007 114.57 14.7048 114.57 14.0931V8.70618C114.57 8.09444 115.068 7.59852 115.683 7.59852H121.091C121.706 7.59852 122.204 8.09444 122.204 8.70618V14.0931C122.204 14.7048 121.706 15.2007 121.091 15.2007H115.683ZM115.683 30.4015C115.068 30.4015 114.57 29.9056 114.57 29.2938V20.1113C114.57 19.4996 115.068 19.0037 115.683 19.0037H121.091C121.706 19.0037 122.204 19.4996 122.204 20.1114V29.2938C122.204 29.9056 121.706 30.4015 121.091 30.4015H115.683Z" fill="white"/>
<path d="M134.115 30.4015C133.962 30.4015 131.911 30.4281 129.909 30.4537C127.76 30.4812 126.018 28.7578 126.018 26.6085L126.017 15.2007C126.017 15.4945 125.808 14.993 126.017 15.2007H125.518C124.413 15.2007 123.518 14.3053 123.518 13.2007V9.92314C123.518 8.81857 124.413 7.92314 125.518 7.92314H126.017V1.10766C126.017 0.495914 126.515 0 127.13 0H132.541C133.156 0 133.654 0.495915 133.654 1.10766V6.49087C133.654 7.10261 134.152 7.59852 134.767 7.59852H140.175C140.79 7.59852 141.288 8.09444 141.288 8.70618V14.0931C141.288 14.7048 140.79 15.2007 140.175 15.2007H134.767C134.152 15.2007 133.654 15.6967 133.654 16.3084V21.6916C133.654 22.3033 134.152 22.7993 134.767 22.7993H140.175C140.79 22.7993 141.288 23.2952 141.288 23.9069V29.2938C141.288 29.9056 140.79 30.4015 140.175 30.4015H134.115Z" fill="white"/>
<path d="M161.497 38C160.882 38 160.384 37.5041 160.384 36.8923V31.5091C160.384 30.8974 159.886 30.4015 159.271 30.4015H153.207C153.416 30.6093 152.912 30.4015 153.207 30.4015H150.112C147.351 30.4015 145.112 28.1629 145.112 25.4015V22.3406C145.112 22.6343 144.904 22.1329 145.112 22.3406V8.70618C145.112 8.09444 145.611 7.59852 146.225 7.59852H151.633C152.248 7.59852 152.746 8.09444 152.746 8.70618V21.6916C152.746 22.3033 153.244 22.7993 153.859 22.7993H159.271C159.886 22.7993 160.384 22.3033 160.384 21.6916V8.70618C160.384 8.09444 160.882 7.59852 161.497 7.59852H166.905C167.519 7.59852 168.018 8.09444 168.018 8.70618V36.8923C168.018 37.5041 167.519 38 166.905 38H161.497Z" fill="white"/>
<path d="M41.9014 9.08696V14.0435C41.9014 14.5797 41.7246 15.1015 41.3974 15.5304L37.3654 20.8174C36.3967 22.0876 34.3414 21.4138 34.3414 19.8261V16.9348C34.3414 16.0223 33.5893 15.2826 32.6614 15.2826H28.4613C27.5335 15.2826 26.7813 16.0223 26.7813 16.9348V21.0652C26.7813 21.9777 27.5335 22.7174 28.4613 22.7174H39.3814C40.7732 22.7174 41.9014 23.8269 41.9014 25.1957V27.7002C41.9014 29.0586 40.7895 30.1638 39.4083 30.1783L20.9193 30.3723C19.9845 30.3821 19.2213 29.6396 19.2213 28.7203V16.2701C19.2213 15.636 18.7779 16.7305 19.2213 16.2701V11.5235C19.2213 9.34386 20.9664 7.56547 23.1456 7.52419L27.8653 7.43478C28.3412 6.94076 27.1733 7.43478 27.8653 7.43478H40.2214C41.1493 7.43478 41.9014 8.17449 41.9014 9.08696Z" fill="white"/>
</svg>
